<mxfile host="app.diagrams.net" modified="2020-12-17T10:25:26.877Z" agent="5.0 (X11; Linux x86_64) AppleWebKit/537.36 (KHTML, like Gecko) Chrome/87.0.4280.88 Safari/537.36" etag="jpPxdGG4nIB_oQiAxlJ2" version="14.0.1" type="github" pages="3">
  <diagram id="C5RBs43oDa-KdzZeNtuy" name="Page-1">
    <mxGraphModel dx="1248" dy="712" grid="1" gridSize="10" guides="1" tooltips="1" connect="1" arrows="1" fold="1" page="1" pageScale="1" pageWidth="1169" pageHeight="827" math="0" shadow="0">
      <root>
        <mxCell id="WIyWlLk6GJQsqaUBKTNV-0" />
        <mxCell id="WIyWlLk6GJQsqaUBKTNV-1" parent="WIyWlLk6GJQsqaUBKTNV-0" />
        <mxCell id="3SdIP5uNNKMW2fPhe3Vz-0" value="Program" style="rounded=0;whiteSpace=wrap;html=1;verticalAlign=top;fontSize=24;fontStyle=1" parent="WIyWlLk6GJQsqaUBKTNV-1" vertex="1">
          <mxGeometry x="280" y="80" width="680" height="680" as="geometry" />
        </mxCell>
        <mxCell id="3SdIP5uNNKMW2fPhe3Vz-1" value="Sensorer" style="rounded=0;whiteSpace=wrap;html=1;fontSize=24;" parent="WIyWlLk6GJQsqaUBKTNV-1" vertex="1">
          <mxGeometry x="39.99999999999999" y="320" width="120" height="200" as="geometry" />
        </mxCell>
        <mxCell id="3SdIP5uNNKMW2fPhe3Vz-3" style="edgeStyle=orthogonalEdgeStyle;rounded=0;orthogonalLoop=1;jettySize=auto;html=1;entryX=0.5;entryY=0;entryDx=0;entryDy=0;fontSize=24;" parent="WIyWlLk6GJQsqaUBKTNV-1" source="3SdIP5uNNKMW2fPhe3Vz-2" target="3SdIP5uNNKMW2fPhe3Vz-1" edge="1">
          <mxGeometry relative="1" as="geometry">
            <Array as="points">
              <mxPoint x="100" y="220" />
              <mxPoint x="100" y="220" />
            </Array>
          </mxGeometry>
        </mxCell>
        <mxCell id="3SdIP5uNNKMW2fPhe3Vz-4" value="&lt;font&gt;&lt;font style=&quot;font-size: 12px&quot;&gt;Fordonspassager&lt;/font&gt;&lt;br&gt;&lt;/font&gt;" style="edgeLabel;html=1;align=center;verticalAlign=middle;resizable=0;points=[];fontSize=24;" parent="3SdIP5uNNKMW2fPhe3Vz-3" vertex="1" connectable="0">
          <mxGeometry x="-0.2556" y="-4" relative="1" as="geometry">
            <mxPoint as="offset" />
          </mxGeometry>
        </mxCell>
        <mxCell id="3SdIP5uNNKMW2fPhe3Vz-2" value="" style="shape=image;imageAspect=0;aspect=fixed;verticalLabelPosition=bottom;verticalAlign=top;fontSize=24;image=https://www.mitti.se/_internal/cimg!0/dzyfbg5iqgwy4n2qbdqmdj723bzd70o.jpeg;" parent="WIyWlLk6GJQsqaUBKTNV-1" vertex="1">
          <mxGeometry x="40" y="80" width="198.24" height="130" as="geometry" />
        </mxCell>
        <mxCell id="3SdIP5uNNKMW2fPhe3Vz-25" style="edgeStyle=orthogonalEdgeStyle;rounded=0;orthogonalLoop=1;jettySize=auto;html=1;entryX=0;entryY=0.5;entryDx=0;entryDy=0;endArrow=classic;endFill=1;fontSize=12;" parent="WIyWlLk6GJQsqaUBKTNV-1" source="3SdIP5uNNKMW2fPhe3Vz-6" target="3SdIP5uNNKMW2fPhe3Vz-8" edge="1">
          <mxGeometry relative="1" as="geometry" />
        </mxCell>
        <mxCell id="3SdIP5uNNKMW2fPhe3Vz-6" value="Mätfiler" style="text;html=1;strokeColor=none;fillColor=none;align=center;verticalAlign=middle;whiteSpace=wrap;rounded=0;fontSize=12;" parent="WIyWlLk6GJQsqaUBKTNV-1" vertex="1">
          <mxGeometry x="198.24" y="410" width="40" height="20" as="geometry" />
        </mxCell>
        <mxCell id="3SdIP5uNNKMW2fPhe3Vz-7" style="edgeStyle=orthogonalEdgeStyle;rounded=0;orthogonalLoop=1;jettySize=auto;html=1;entryX=0;entryY=0.5;entryDx=0;entryDy=0;fontSize=12;endArrow=none;endFill=0;" parent="WIyWlLk6GJQsqaUBKTNV-1" source="3SdIP5uNNKMW2fPhe3Vz-1" target="3SdIP5uNNKMW2fPhe3Vz-6" edge="1">
          <mxGeometry relative="1" as="geometry">
            <mxPoint x="160" y="419.9999999999998" as="sourcePoint" />
            <mxPoint x="280" y="419.9999999999998" as="targetPoint" />
          </mxGeometry>
        </mxCell>
        <mxCell id="3SdIP5uNNKMW2fPhe3Vz-28" style="edgeStyle=orthogonalEdgeStyle;rounded=0;orthogonalLoop=1;jettySize=auto;html=1;entryX=0;entryY=0.5;entryDx=0;entryDy=0;endArrow=classic;endFill=1;fontSize=12;" parent="WIyWlLk6GJQsqaUBKTNV-1" source="3SdIP5uNNKMW2fPhe3Vz-8" target="3SdIP5uNNKMW2fPhe3Vz-9" edge="1">
          <mxGeometry relative="1" as="geometry" />
        </mxCell>
        <mxCell id="3SdIP5uNNKMW2fPhe3Vz-8" value="Data.py&lt;br&gt;class DataBatch()&lt;br&gt;&amp;nbsp; &amp;nbsp; self.data&lt;br&gt;&lt;div&gt;&amp;nbsp; &amp;nbsp; self.MacId&lt;/div&gt;&lt;div&gt;&amp;nbsp; &amp;nbsp; self.NetworkId&lt;/div&gt;&lt;div&gt;&amp;nbsp; &amp;nbsp; self.SamplingRate&lt;/div&gt;&lt;div&gt;&lt;br&gt;&lt;/div&gt;&lt;div&gt;&amp;nbsp; &amp;nbsp; normalize()&lt;/div&gt;&lt;div&gt;&lt;br&gt;&lt;/div&gt;class Series_Stack()&lt;br&gt;&amp;nbsp; &amp;nbsp; self.settings&lt;br&gt;&amp;nbsp; &amp;nbsp; self.stack&lt;br&gt;&amp;nbsp; &amp;nbsp; self.learned&lt;br&gt;&amp;nbsp; &amp;nbsp; self.to_learn&lt;br&gt;&amp;nbsp; &amp;nbsp; self.available&lt;br&gt;&lt;br&gt;&amp;nbsp; &amp;nbsp; populate_stack(to_learn)&lt;br&gt;&lt;br&gt;&amp;nbsp; &amp;nbsp; get_Databatch(data)&lt;br&gt;&lt;br&gt;&amp;nbsp; &amp;nbsp; read_file(path)" style="rounded=0;whiteSpace=wrap;html=1;fontSize=12;align=left;verticalAlign=top;" parent="WIyWlLk6GJQsqaUBKTNV-1" vertex="1">
          <mxGeometry x="300" y="122" width="170" height="318" as="geometry" />
        </mxCell>
        <mxCell id="3SdIP5uNNKMW2fPhe3Vz-9" value="NeuralNet.py&lt;br&gt;class NeuralNet()&lt;br&gt;&amp;nbsp; &amp;nbsp; self.settings&lt;br&gt;&amp;nbsp; &amp;nbsp; self.name&lt;br&gt;&amp;nbsp; &amp;nbsp; self.existing_model&lt;br&gt;&lt;br&gt;&amp;nbsp; &amp;nbsp; split_data(data)&lt;br&gt;&lt;br&gt;&amp;nbsp; &amp;nbsp; train(data)&lt;br&gt;&lt;br&gt;&amp;nbsp; &amp;nbsp; save_model(model)&lt;br&gt;&lt;br&gt;&amp;nbsp; &amp;nbsp; load_model(model)" style="rounded=0;whiteSpace=wrap;html=1;fontSize=12;align=left;verticalAlign=top;" parent="WIyWlLk6GJQsqaUBKTNV-1" vertex="1">
          <mxGeometry x="510" y="120" width="170" height="320" as="geometry" />
        </mxCell>
        <mxCell id="fk17r2AHfMUluzev5C7j-2" style="edgeStyle=orthogonalEdgeStyle;rounded=0;orthogonalLoop=1;jettySize=auto;html=1;entryX=0.75;entryY=1;entryDx=0;entryDy=0;" parent="WIyWlLk6GJQsqaUBKTNV-1" source="3SdIP5uNNKMW2fPhe3Vz-10" target="3SdIP5uNNKMW2fPhe3Vz-9" edge="1">
          <mxGeometry relative="1" as="geometry" />
        </mxCell>
        <mxCell id="3SdIP5uNNKMW2fPhe3Vz-10" value="&amp;lt;modelname&amp;gt;.py&lt;br&gt;def set_up_model()&lt;br&gt;&amp;nbsp; &amp;nbsp; arch = {...}&lt;br&gt;&amp;nbsp; &amp;nbsp; return model&lt;br&gt;&lt;br&gt;..." style="rounded=0;whiteSpace=wrap;html=1;fontSize=12;align=left;verticalAlign=top;" parent="WIyWlLk6GJQsqaUBKTNV-1" vertex="1">
          <mxGeometry x="440" y="490" width="170" height="100" as="geometry" />
        </mxCell>
        <mxCell id="3SdIP5uNNKMW2fPhe3Vz-26" style="edgeStyle=orthogonalEdgeStyle;rounded=0;orthogonalLoop=1;jettySize=auto;html=1;exitX=0;exitY=0.5;exitDx=0;exitDy=0;entryX=1;entryY=0.5;entryDx=0;entryDy=0;endArrow=classic;endFill=1;fontSize=12;" parent="WIyWlLk6GJQsqaUBKTNV-1" source="3SdIP5uNNKMW2fPhe3Vz-11" target="3SdIP5uNNKMW2fPhe3Vz-9" edge="1">
          <mxGeometry relative="1" as="geometry">
            <Array as="points">
              <mxPoint x="700" y="680" />
              <mxPoint x="700" y="280" />
            </Array>
          </mxGeometry>
        </mxCell>
        <mxCell id="3SdIP5uNNKMW2fPhe3Vz-11" value="config.py&lt;br&gt;file_path = &#39;user/struc_mon&#39;&lt;br&gt;measurements = file_path +&amp;nbsp;&lt;br&gt;&amp;nbsp; &amp;nbsp; &#39;/märfiler&#39;&lt;br&gt;...&lt;br&gt;" style="rounded=0;whiteSpace=wrap;html=1;fontSize=12;verticalAlign=top;align=left;" parent="WIyWlLk6GJQsqaUBKTNV-1" vertex="1">
          <mxGeometry x="450" y="630" width="170" height="100" as="geometry" />
        </mxCell>
        <mxCell id="3SdIP5uNNKMW2fPhe3Vz-20" style="edgeStyle=orthogonalEdgeStyle;rounded=0;orthogonalLoop=1;jettySize=auto;html=1;exitX=0.5;exitY=0;exitDx=0;exitDy=0;entryX=0.5;entryY=1;entryDx=0;entryDy=0;endArrow=classic;endFill=1;fontSize=12;" parent="WIyWlLk6GJQsqaUBKTNV-1" source="3SdIP5uNNKMW2fPhe3Vz-12" target="3SdIP5uNNKMW2fPhe3Vz-19" edge="1">
          <mxGeometry relative="1" as="geometry" />
        </mxCell>
        <mxCell id="3SdIP5uNNKMW2fPhe3Vz-12" value="Menu.py&lt;br&gt;def prompt_action()&lt;br&gt;&amp;nbsp; &amp;nbsp; action = input()&lt;br&gt;&amp;nbsp; &amp;nbsp; return action" style="rounded=0;whiteSpace=wrap;html=1;fontSize=12;align=left;verticalAlign=top;" parent="WIyWlLk6GJQsqaUBKTNV-1" vertex="1">
          <mxGeometry x="300" y="620" width="120" height="120" as="geometry" />
        </mxCell>
        <mxCell id="3SdIP5uNNKMW2fPhe3Vz-18" style="edgeStyle=orthogonalEdgeStyle;rounded=0;orthogonalLoop=1;jettySize=auto;html=1;endArrow=classic;endFill=1;fontSize=12;entryX=0;entryY=0.75;entryDx=0;entryDy=0;" parent="WIyWlLk6GJQsqaUBKTNV-1" source="3SdIP5uNNKMW2fPhe3Vz-13" target="3SdIP5uNNKMW2fPhe3Vz-11" edge="1">
          <mxGeometry relative="1" as="geometry">
            <mxPoint x="220" y="730" as="targetPoint" />
            <Array as="points">
              <mxPoint x="260" y="700" />
              <mxPoint x="260" y="750" />
              <mxPoint x="430" y="750" />
              <mxPoint x="430" y="705" />
            </Array>
          </mxGeometry>
        </mxCell>
        <mxCell id="fk17r2AHfMUluzev5C7j-4" style="edgeStyle=orthogonalEdgeStyle;rounded=0;orthogonalLoop=1;jettySize=auto;html=1;" parent="WIyWlLk6GJQsqaUBKTNV-1" source="3SdIP5uNNKMW2fPhe3Vz-13" target="3SdIP5uNNKMW2fPhe3Vz-10" edge="1">
          <mxGeometry relative="1" as="geometry">
            <mxPoint x="240" y="620" as="targetPoint" />
            <Array as="points">
              <mxPoint x="260" y="700" />
              <mxPoint x="260" y="610" />
              <mxPoint x="525" y="610" />
            </Array>
          </mxGeometry>
        </mxCell>
        <mxCell id="fk17r2AHfMUluzev5C7j-6" style="edgeStyle=orthogonalEdgeStyle;rounded=0;orthogonalLoop=1;jettySize=auto;html=1;entryX=0;entryY=0.5;entryDx=0;entryDy=0;" parent="WIyWlLk6GJQsqaUBKTNV-1" source="3SdIP5uNNKMW2fPhe3Vz-13" target="3SdIP5uNNKMW2fPhe3Vz-12" edge="1">
          <mxGeometry relative="1" as="geometry">
            <Array as="points">
              <mxPoint x="260" y="700" />
              <mxPoint x="260" y="680" />
            </Array>
          </mxGeometry>
        </mxCell>
        <mxCell id="3SdIP5uNNKMW2fPhe3Vz-13" value="Användare" style="shape=umlActor;verticalLabelPosition=bottom;verticalAlign=top;html=1;outlineConnect=0;fontSize=12;align=left;" parent="WIyWlLk6GJQsqaUBKTNV-1" vertex="1">
          <mxGeometry x="40" y="670" width="30" height="60" as="geometry" />
        </mxCell>
        <mxCell id="3SdIP5uNNKMW2fPhe3Vz-22" style="edgeStyle=orthogonalEdgeStyle;rounded=0;orthogonalLoop=1;jettySize=auto;html=1;exitX=0.5;exitY=0;exitDx=0;exitDy=0;entryX=0.5;entryY=1;entryDx=0;entryDy=0;endArrow=classic;endFill=1;fontSize=12;" parent="WIyWlLk6GJQsqaUBKTNV-1" source="3SdIP5uNNKMW2fPhe3Vz-19" target="3SdIP5uNNKMW2fPhe3Vz-8" edge="1">
          <mxGeometry relative="1" as="geometry" />
        </mxCell>
        <mxCell id="3SdIP5uNNKMW2fPhe3Vz-24" style="edgeStyle=orthogonalEdgeStyle;rounded=0;orthogonalLoop=1;jettySize=auto;html=1;exitX=0.5;exitY=0;exitDx=0;exitDy=0;entryX=0.5;entryY=1;entryDx=0;entryDy=0;endArrow=classic;endFill=1;fontSize=12;" parent="WIyWlLk6GJQsqaUBKTNV-1" source="3SdIP5uNNKMW2fPhe3Vz-19" target="3SdIP5uNNKMW2fPhe3Vz-9" edge="1">
          <mxGeometry relative="1" as="geometry">
            <Array as="points">
              <mxPoint x="595" y="460" />
            </Array>
          </mxGeometry>
        </mxCell>
        <mxCell id="3SdIP5uNNKMW2fPhe3Vz-19" value="functions.py&lt;br&gt;new_model()&lt;br&gt;load_model()&lt;br&gt;set_settings()&lt;br&gt;load_settings&lt;br&gt;constinuosly_update()&lt;br&gt;analyze()" style="rounded=0;whiteSpace=wrap;html=1;fontSize=12;align=left;verticalAlign=top;" parent="WIyWlLk6GJQsqaUBKTNV-1" vertex="1">
          <mxGeometry x="300" y="460" width="120" height="140" as="geometry" />
        </mxCell>
      </root>
    </mxGraphModel>
  </diagram>
  <diagram id="y59KjhfASonp9bvUzr6B" name="Page-2">
    <mxGraphModel dx="1248" dy="712" grid="1" gridSize="10" guides="1" tooltips="1" connect="1" arrows="1" fold="1" page="1" pageScale="1" pageWidth="1169" pageHeight="827" math="0" shadow="0">
      <root>
        <mxCell id="y8WJnsj6zFj0yr_6rQvr-0" />
        <mxCell id="y8WJnsj6zFj0yr_6rQvr-1" parent="y8WJnsj6zFj0yr_6rQvr-0" />
        <mxCell id="y8WJnsj6zFj0yr_6rQvr-2" value="Model" style="swimlane;fontStyle=3;align=center;verticalAlign=top;childLayout=stackLayout;horizontal=1;startSize=26;horizontalStack=0;resizeParent=1;resizeParentMax=0;resizeLast=0;collapsible=1;marginBottom=0;" parent="y8WJnsj6zFj0yr_6rQvr-1" vertex="1">
          <mxGeometry x="200" y="120" width="160" height="198" as="geometry" />
        </mxCell>
        <mxCell id="y8WJnsj6zFj0yr_6rQvr-3" value="+ attribute: settings&#xa;" style="text;strokeColor=none;fillColor=none;align=left;verticalAlign=top;spacingLeft=4;spacingRight=4;overflow=hidden;rotatable=0;points=[[0,0.5],[1,0.5]];portConstraint=eastwest;" parent="y8WJnsj6zFj0yr_6rQvr-2" vertex="1">
          <mxGeometry y="26" width="160" height="26" as="geometry" />
        </mxCell>
        <mxCell id="y8WJnsj6zFj0yr_6rQvr-6" value="+ attribute: name" style="text;strokeColor=none;fillColor=none;align=left;verticalAlign=top;spacingLeft=4;spacingRight=4;overflow=hidden;rotatable=0;points=[[0,0.5],[1,0.5]];portConstraint=eastwest;" parent="y8WJnsj6zFj0yr_6rQvr-2" vertex="1">
          <mxGeometry y="52" width="160" height="26" as="geometry" />
        </mxCell>
        <mxCell id="y8WJnsj6zFj0yr_6rQvr-7" value="+ attribute: existing_model&#xa;" style="text;strokeColor=none;fillColor=none;align=left;verticalAlign=top;spacingLeft=4;spacingRight=4;overflow=hidden;rotatable=0;points=[[0,0.5],[1,0.5]];portConstraint=eastwest;" parent="y8WJnsj6zFj0yr_6rQvr-2" vertex="1">
          <mxGeometry y="78" width="160" height="26" as="geometry" />
        </mxCell>
        <mxCell id="y8WJnsj6zFj0yr_6rQvr-4" value="" style="line;strokeWidth=1;fillColor=none;align=left;verticalAlign=middle;spacingTop=-1;spacingLeft=3;spacingRight=3;rotatable=0;labelPosition=right;points=[];portConstraint=eastwest;" parent="y8WJnsj6zFj0yr_6rQvr-2" vertex="1">
          <mxGeometry y="104" width="160" height="8" as="geometry" />
        </mxCell>
        <mxCell id="y8WJnsj6zFj0yr_6rQvr-8" value="&lt;meta charset=&quot;utf-8&quot;&gt;&lt;span style=&quot;color: rgb(0, 0, 0); font-family: helvetica; font-size: 12px; font-style: normal; font-weight: 400; letter-spacing: normal; text-align: left; text-indent: 0px; text-transform: none; word-spacing: 0px; background-color: rgb(248, 249, 250); display: inline; float: none;&quot;&gt;+ method: init&lt;/span&gt;" style="text;whiteSpace=wrap;html=1;" parent="y8WJnsj6zFj0yr_6rQvr-2" vertex="1">
          <mxGeometry y="112" width="160" height="30" as="geometry" />
        </mxCell>
        <mxCell id="y8WJnsj6zFj0yr_6rQvr-5" value="+ method: setup" style="text;strokeColor=none;fillColor=none;align=left;verticalAlign=top;spacingLeft=4;spacingRight=4;overflow=hidden;rotatable=0;points=[[0,0.5],[1,0.5]];portConstraint=eastwest;" parent="y8WJnsj6zFj0yr_6rQvr-2" vertex="1">
          <mxGeometry y="142" width="160" height="26" as="geometry" />
        </mxCell>
        <mxCell id="y8WJnsj6zFj0yr_6rQvr-9" value="&lt;span style=&quot;color: rgb(0 , 0 , 0) ; font-family: &amp;#34;helvetica&amp;#34; ; font-size: 12px ; font-style: normal ; font-weight: 400 ; letter-spacing: normal ; text-align: left ; text-indent: 0px ; text-transform: none ; word-spacing: 0px ; background-color: rgb(248 , 249 , 250) ; display: inline ; float: none&quot;&gt;+ method: make_dataframe&lt;/span&gt;" style="text;whiteSpace=wrap;html=1;" parent="y8WJnsj6zFj0yr_6rQvr-2" vertex="1">
          <mxGeometry y="168" width="160" height="30" as="geometry" />
        </mxCell>
        <mxCell id="y8WJnsj6zFj0yr_6rQvr-10" value="NeuralNet" style="swimlane;fontStyle=3;align=center;verticalAlign=top;childLayout=stackLayout;horizontal=1;startSize=26;horizontalStack=0;resizeParent=1;resizeParentMax=0;resizeLast=0;collapsible=1;marginBottom=0;" parent="y8WJnsj6zFj0yr_6rQvr-1" vertex="1">
          <mxGeometry x="200" y="360" width="160" height="112" as="geometry" />
        </mxCell>
        <mxCell id="y8WJnsj6zFj0yr_6rQvr-11" value="+ attribute: nn" style="text;strokeColor=none;fillColor=none;align=left;verticalAlign=top;spacingLeft=4;spacingRight=4;overflow=hidden;rotatable=0;points=[[0,0.5],[1,0.5]];portConstraint=eastwest;" parent="y8WJnsj6zFj0yr_6rQvr-10" vertex="1">
          <mxGeometry y="26" width="160" height="26" as="geometry" />
        </mxCell>
        <mxCell id="y8WJnsj6zFj0yr_6rQvr-15" value="+ field: type" style="text;strokeColor=none;fillColor=none;align=left;verticalAlign=top;spacingLeft=4;spacingRight=4;overflow=hidden;rotatable=0;points=[[0,0.5],[1,0.5]];portConstraint=eastwest;" parent="y8WJnsj6zFj0yr_6rQvr-10" vertex="1">
          <mxGeometry y="52" width="160" height="26" as="geometry" />
        </mxCell>
        <mxCell id="y8WJnsj6zFj0yr_6rQvr-12" value="" style="line;strokeWidth=1;fillColor=none;align=left;verticalAlign=middle;spacingTop=-1;spacingLeft=3;spacingRight=3;rotatable=0;labelPosition=right;points=[];portConstraint=eastwest;" parent="y8WJnsj6zFj0yr_6rQvr-10" vertex="1">
          <mxGeometry y="78" width="160" height="8" as="geometry" />
        </mxCell>
        <mxCell id="y8WJnsj6zFj0yr_6rQvr-13" value="+ method(type): type" style="text;strokeColor=none;fillColor=none;align=left;verticalAlign=top;spacingLeft=4;spacingRight=4;overflow=hidden;rotatable=0;points=[[0,0.5],[1,0.5]];portConstraint=eastwest;" parent="y8WJnsj6zFj0yr_6rQvr-10" vertex="1">
          <mxGeometry y="86" width="160" height="26" as="geometry" />
        </mxCell>
      </root>
    </mxGraphModel>
  </diagram>
  <diagram id="dw5nj-q4cA5HlDSJhuxH" name="Page-3">
    <mxGraphModel dx="1248" dy="712" grid="1" gridSize="10" guides="1" tooltips="1" connect="1" arrows="1" fold="1" page="1" pageScale="1" pageWidth="1169" pageHeight="827" math="0" shadow="0">
      <root>
        <mxCell id="lFk1K94WSbGUSgZNSK4V-0" />
        <mxCell id="lFk1K94WSbGUSgZNSK4V-1" parent="lFk1K94WSbGUSgZNSK4V-0" />
        <mxCell id="lFk1K94WSbGUSgZNSK4V-2" value="DataSeries" style="swimlane;fontStyle=1;align=center;verticalAlign=top;childLayout=stackLayout;horizontal=1;startSize=26;horizontalStack=0;resizeParent=1;resizeParentMax=0;resizeLast=0;collapsible=1;marginBottom=0;" vertex="1" parent="lFk1K94WSbGUSgZNSK4V-1">
          <mxGeometry x="80" y="80" width="160" height="230" as="geometry" />
        </mxCell>
        <mxCell id="lFk1K94WSbGUSgZNSK4V-3" value="data&#xa;networkId&#xa;dataAcquisitionCycle&#xa;dataAcquisitionDuration&#xa;samplingRate&#xa;cutOffDrequency&#xa;date&#xa;filteredData" style="text;strokeColor=none;fillColor=none;align=left;verticalAlign=top;spacingLeft=4;spacingRight=4;overflow=hidden;rotatable=0;points=[[0,0.5],[1,0.5]];portConstraint=eastwest;" vertex="1" parent="lFk1K94WSbGUSgZNSK4V-2">
          <mxGeometry y="26" width="160" height="144" as="geometry" />
        </mxCell>
        <mxCell id="lFk1K94WSbGUSgZNSK4V-4" value="" style="line;strokeWidth=1;fillColor=none;align=left;verticalAlign=middle;spacingTop=-1;spacingLeft=3;spacingRight=3;rotatable=0;labelPosition=right;points=[];portConstraint=eastwest;" vertex="1" parent="lFk1K94WSbGUSgZNSK4V-2">
          <mxGeometry y="170" width="160" height="8" as="geometry" />
        </mxCell>
        <mxCell id="lFk1K94WSbGUSgZNSK4V-5" value="addDateSignal(self)&#xa;filterData(self)&#xa;plotData(self)" style="text;strokeColor=none;fillColor=none;align=left;verticalAlign=top;spacingLeft=4;spacingRight=4;overflow=hidden;rotatable=0;points=[[0,0.5],[1,0.5]];portConstraint=eastwest;" vertex="1" parent="lFk1K94WSbGUSgZNSK4V-2">
          <mxGeometry y="178" width="160" height="52" as="geometry" />
        </mxCell>
        <mxCell id="lFk1K94WSbGUSgZNSK4V-6" value="SeriesStack" style="swimlane;fontStyle=3;align=center;verticalAlign=top;childLayout=stackLayout;horizontal=1;startSize=26;horizontalStack=0;resizeParent=1;resizeParentMax=0;resizeLast=0;collapsible=1;marginBottom=0;" vertex="1" parent="lFk1K94WSbGUSgZNSK4V-1">
          <mxGeometry x="80" y="470" width="180" height="190" as="geometry" />
        </mxCell>
        <mxCell id="lFk1K94WSbGUSgZNSK4V-7" value="learned&#xa;toLearn&#xa;available&#xa;inStack&#xa;stack" style="text;strokeColor=none;fillColor=none;align=left;verticalAlign=top;spacingLeft=4;spacingRight=4;overflow=hidden;rotatable=0;points=[[0,0.5],[1,0.5]];portConstraint=eastwest;" vertex="1" parent="lFk1K94WSbGUSgZNSK4V-6">
          <mxGeometry y="26" width="180" height="84" as="geometry" />
        </mxCell>
        <mxCell id="lFk1K94WSbGUSgZNSK4V-8" value="" style="line;strokeWidth=1;fillColor=none;align=left;verticalAlign=middle;spacingTop=-1;spacingLeft=3;spacingRight=3;rotatable=0;labelPosition=right;points=[];portConstraint=eastwest;" vertex="1" parent="lFk1K94WSbGUSgZNSK4V-6">
          <mxGeometry y="110" width="180" height="8" as="geometry" />
        </mxCell>
        <mxCell id="lFk1K94WSbGUSgZNSK4V-9" value="populateStack(self)&#xa;getDataSeries(self,dataFrame)&#xa;readFile(path)&#xa;pickSeries(index)" style="text;strokeColor=none;fillColor=none;align=left;verticalAlign=top;spacingLeft=4;spacingRight=4;overflow=hidden;rotatable=0;points=[[0,0.5],[1,0.5]];portConstraint=eastwest;" vertex="1" parent="lFk1K94WSbGUSgZNSK4V-6">
          <mxGeometry y="118" width="180" height="72" as="geometry" />
        </mxCell>
        <mxCell id="lFk1K94WSbGUSgZNSK4V-10" value="AccSeriesStack" style="swimlane;fontStyle=1;align=center;verticalAlign=top;childLayout=stackLayout;horizontal=1;startSize=26;horizontalStack=0;resizeParent=1;resizeParentMax=0;resizeLast=0;collapsible=1;marginBottom=0;" vertex="1" parent="lFk1K94WSbGUSgZNSK4V-1">
          <mxGeometry x="360" y="330" width="160" height="94" as="geometry" />
        </mxCell>
        <mxCell id="lFk1K94WSbGUSgZNSK4V-11" value="header&#xa;features" style="text;strokeColor=none;fillColor=none;align=left;verticalAlign=top;spacingLeft=4;spacingRight=4;overflow=hidden;rotatable=0;points=[[0,0.5],[1,0.5]];portConstraint=eastwest;" vertex="1" parent="lFk1K94WSbGUSgZNSK4V-10">
          <mxGeometry y="26" width="160" height="34" as="geometry" />
        </mxCell>
        <mxCell id="lFk1K94WSbGUSgZNSK4V-12" value="" style="line;strokeWidth=1;fillColor=none;align=left;verticalAlign=middle;spacingTop=-1;spacingLeft=3;spacingRight=3;rotatable=0;labelPosition=right;points=[];portConstraint=eastwest;" vertex="1" parent="lFk1K94WSbGUSgZNSK4V-10">
          <mxGeometry y="60" width="160" height="8" as="geometry" />
        </mxCell>
        <mxCell id="lFk1K94WSbGUSgZNSK4V-13" value="init" style="text;strokeColor=none;fillColor=none;align=left;verticalAlign=top;spacingLeft=4;spacingRight=4;overflow=hidden;rotatable=0;points=[[0,0.5],[1,0.5]];portConstraint=eastwest;" vertex="1" parent="lFk1K94WSbGUSgZNSK4V-10">
          <mxGeometry y="68" width="160" height="26" as="geometry" />
        </mxCell>
        <mxCell id="lFk1K94WSbGUSgZNSK4V-14" value="InclSeriesStack" style="swimlane;fontStyle=1;align=center;verticalAlign=top;childLayout=stackLayout;horizontal=1;startSize=26;horizontalStack=0;resizeParent=1;resizeParentMax=0;resizeLast=0;collapsible=1;marginBottom=0;" vertex="1" parent="lFk1K94WSbGUSgZNSK4V-1">
          <mxGeometry x="360" y="510" width="160" height="94" as="geometry" />
        </mxCell>
        <mxCell id="lFk1K94WSbGUSgZNSK4V-15" value="header&#xa;features" style="text;strokeColor=none;fillColor=none;align=left;verticalAlign=top;spacingLeft=4;spacingRight=4;overflow=hidden;rotatable=0;points=[[0,0.5],[1,0.5]];portConstraint=eastwest;" vertex="1" parent="lFk1K94WSbGUSgZNSK4V-14">
          <mxGeometry y="26" width="160" height="34" as="geometry" />
        </mxCell>
        <mxCell id="lFk1K94WSbGUSgZNSK4V-16" value="" style="line;strokeWidth=1;fillColor=none;align=left;verticalAlign=middle;spacingTop=-1;spacingLeft=3;spacingRight=3;rotatable=0;labelPosition=right;points=[];portConstraint=eastwest;" vertex="1" parent="lFk1K94WSbGUSgZNSK4V-14">
          <mxGeometry y="60" width="160" height="8" as="geometry" />
        </mxCell>
        <mxCell id="lFk1K94WSbGUSgZNSK4V-17" value="init" style="text;strokeColor=none;fillColor=none;align=left;verticalAlign=top;spacingLeft=4;spacingRight=4;overflow=hidden;rotatable=0;points=[[0,0.5],[1,0.5]];portConstraint=eastwest;" vertex="1" parent="lFk1K94WSbGUSgZNSK4V-14">
          <mxGeometry y="68" width="160" height="26" as="geometry" />
        </mxCell>
        <mxCell id="lFk1K94WSbGUSgZNSK4V-18" value="StrainSeriesStack" style="swimlane;fontStyle=1;align=center;verticalAlign=top;childLayout=stackLayout;horizontal=1;startSize=26;horizontalStack=0;resizeParent=1;resizeParentMax=0;resizeLast=0;collapsible=1;marginBottom=0;" vertex="1" parent="lFk1K94WSbGUSgZNSK4V-1">
          <mxGeometry x="360" y="680" width="160" height="94" as="geometry" />
        </mxCell>
        <mxCell id="lFk1K94WSbGUSgZNSK4V-19" value="header&#xa;features" style="text;strokeColor=none;fillColor=none;align=left;verticalAlign=top;spacingLeft=4;spacingRight=4;overflow=hidden;rotatable=0;points=[[0,0.5],[1,0.5]];portConstraint=eastwest;" vertex="1" parent="lFk1K94WSbGUSgZNSK4V-18">
          <mxGeometry y="26" width="160" height="34" as="geometry" />
        </mxCell>
        <mxCell id="lFk1K94WSbGUSgZNSK4V-20" value="" style="line;strokeWidth=1;fillColor=none;align=left;verticalAlign=middle;spacingTop=-1;spacingLeft=3;spacingRight=3;rotatable=0;labelPosition=right;points=[];portConstraint=eastwest;" vertex="1" parent="lFk1K94WSbGUSgZNSK4V-18">
          <mxGeometry y="60" width="160" height="8" as="geometry" />
        </mxCell>
        <mxCell id="lFk1K94WSbGUSgZNSK4V-21" value="init" style="text;strokeColor=none;fillColor=none;align=left;verticalAlign=top;spacingLeft=4;spacingRight=4;overflow=hidden;rotatable=0;points=[[0,0.5],[1,0.5]];portConstraint=eastwest;" vertex="1" parent="lFk1K94WSbGUSgZNSK4V-18">
          <mxGeometry y="68" width="160" height="26" as="geometry" />
        </mxCell>
        <mxCell id="lFk1K94WSbGUSgZNSK4V-22" value="" style="endArrow=block;endSize=16;endFill=0;html=1;entryX=1.006;entryY=0.833;entryDx=0;entryDy=0;entryPerimeter=0;" edge="1" parent="lFk1K94WSbGUSgZNSK4V-1" target="lFk1K94WSbGUSgZNSK4V-7">
          <mxGeometry width="160" relative="1" as="geometry">
            <mxPoint x="320" y="566" as="sourcePoint" />
            <mxPoint x="400" y="700" as="targetPoint" />
          </mxGeometry>
        </mxCell>
        <mxCell id="lFk1K94WSbGUSgZNSK4V-23" style="edgeStyle=orthogonalEdgeStyle;rounded=0;orthogonalLoop=1;jettySize=auto;html=1;endArrow=none;endFill=0;" edge="1" parent="lFk1K94WSbGUSgZNSK4V-1" source="lFk1K94WSbGUSgZNSK4V-13">
          <mxGeometry relative="1" as="geometry">
            <mxPoint x="320" y="570" as="targetPoint" />
          </mxGeometry>
        </mxCell>
        <mxCell id="lFk1K94WSbGUSgZNSK4V-24" style="edgeStyle=orthogonalEdgeStyle;rounded=0;orthogonalLoop=1;jettySize=auto;html=1;endArrow=none;endFill=0;" edge="1" parent="lFk1K94WSbGUSgZNSK4V-1" source="lFk1K94WSbGUSgZNSK4V-15">
          <mxGeometry relative="1" as="geometry">
            <mxPoint x="320" y="560" as="targetPoint" />
            <Array as="points">
              <mxPoint x="320" y="570" />
            </Array>
          </mxGeometry>
        </mxCell>
        <mxCell id="lFk1K94WSbGUSgZNSK4V-25" style="edgeStyle=orthogonalEdgeStyle;rounded=0;orthogonalLoop=1;jettySize=auto;html=1;endArrow=none;endFill=0;" edge="1" parent="lFk1K94WSbGUSgZNSK4V-1" source="lFk1K94WSbGUSgZNSK4V-19">
          <mxGeometry relative="1" as="geometry">
            <mxPoint x="320" y="570" as="targetPoint" />
          </mxGeometry>
        </mxCell>
        <mxCell id="lFk1K94WSbGUSgZNSK4V-26" value="1..*" style="endArrow=open;html=1;endSize=12;startArrow=diamondThin;startSize=14;startFill=1;align=left;verticalAlign=bottom;entryX=0.5;entryY=1.062;entryDx=0;entryDy=0;entryPerimeter=0;exitX=0.441;exitY=0;exitDx=0;exitDy=0;exitPerimeter=0;" edge="1" parent="lFk1K94WSbGUSgZNSK4V-1" source="lFk1K94WSbGUSgZNSK4V-6" target="lFk1K94WSbGUSgZNSK4V-5">
          <mxGeometry x="-0.8724" y="-1" relative="1" as="geometry">
            <mxPoint x="90" y="400" as="sourcePoint" />
            <mxPoint x="250" y="400" as="targetPoint" />
            <mxPoint as="offset" />
          </mxGeometry>
        </mxCell>
        <mxCell id="lFk1K94WSbGUSgZNSK4V-27" value="consists of" style="text;html=1;align=center;verticalAlign=middle;resizable=0;points=[];autosize=1;" vertex="1" parent="lFk1K94WSbGUSgZNSK4V-1">
          <mxGeometry x="90" y="393" width="70" height="20" as="geometry" />
        </mxCell>
        <mxCell id="lFk1K94WSbGUSgZNSK4V-28" value="Model" style="swimlane;fontStyle=3;align=center;verticalAlign=top;childLayout=stackLayout;horizontal=1;startSize=26;horizontalStack=0;resizeParent=1;resizeParentMax=0;resizeLast=0;collapsible=1;marginBottom=0;" vertex="1" parent="lFk1K94WSbGUSgZNSK4V-1">
          <mxGeometry x="600" y="80" width="160" height="100" as="geometry" />
        </mxCell>
        <mxCell id="lFk1K94WSbGUSgZNSK4V-29" value="settings&#xa;" style="text;strokeColor=none;fillColor=none;align=left;verticalAlign=top;spacingLeft=4;spacingRight=4;overflow=hidden;rotatable=0;points=[[0,0.5],[1,0.5]];portConstraint=eastwest;" vertex="1" parent="lFk1K94WSbGUSgZNSK4V-28">
          <mxGeometry y="26" width="160" height="24" as="geometry" />
        </mxCell>
        <mxCell id="lFk1K94WSbGUSgZNSK4V-30" value="" style="line;strokeWidth=1;fillColor=none;align=left;verticalAlign=middle;spacingTop=-1;spacingLeft=3;spacingRight=3;rotatable=0;labelPosition=right;points=[];portConstraint=eastwest;" vertex="1" parent="lFk1K94WSbGUSgZNSK4V-28">
          <mxGeometry y="50" width="160" height="8" as="geometry" />
        </mxCell>
        <mxCell id="lFk1K94WSbGUSgZNSK4V-31" value="makeDataframe(seriesStack)&#xa;plotOutliers(residual)" style="text;strokeColor=none;fillColor=none;align=left;verticalAlign=top;spacingLeft=4;spacingRight=4;overflow=hidden;rotatable=0;points=[[0,0.5],[1,0.5]];portConstraint=eastwest;" vertex="1" parent="lFk1K94WSbGUSgZNSK4V-28">
          <mxGeometry y="58" width="160" height="42" as="geometry" />
        </mxCell>
        <mxCell id="lFk1K94WSbGUSgZNSK4V-32" value="NeuralNet" style="swimlane;fontStyle=3;align=center;verticalAlign=top;childLayout=stackLayout;horizontal=1;startSize=26;horizontalStack=0;resizeParent=1;resizeParentMax=0;resizeLast=0;collapsible=1;marginBottom=0;" vertex="1" parent="lFk1K94WSbGUSgZNSK4V-1">
          <mxGeometry x="600" y="250" width="160" height="200" as="geometry" />
        </mxCell>
        <mxCell id="lFk1K94WSbGUSgZNSK4V-33" value="nn&#xa;history&#xa;residual" style="text;strokeColor=none;fillColor=none;align=left;verticalAlign=top;spacingLeft=4;spacingRight=4;overflow=hidden;rotatable=0;points=[[0,0.5],[1,0.5]];portConstraint=eastwest;" vertex="1" parent="lFk1K94WSbGUSgZNSK4V-32">
          <mxGeometry y="26" width="160" height="54" as="geometry" />
        </mxCell>
        <mxCell id="lFk1K94WSbGUSgZNSK4V-34" value="" style="line;strokeWidth=1;fillColor=none;align=left;verticalAlign=middle;spacingTop=-1;spacingLeft=3;spacingRight=3;rotatable=0;labelPosition=right;points=[];portConstraint=eastwest;" vertex="1" parent="lFk1K94WSbGUSgZNSK4V-32">
          <mxGeometry y="80" width="160" height="8" as="geometry" />
        </mxCell>
        <mxCell id="lFk1K94WSbGUSgZNSK4V-35" value="train(trainData)&#xa;test(testData)&#xa;evaluate(evalData)&#xa;plotExample()&#xa;plotHistory()&#xa;saveNn(path)&#xa;loadNn(path)&#xa;" style="text;strokeColor=none;fillColor=none;align=left;verticalAlign=top;spacingLeft=4;spacingRight=4;overflow=hidden;rotatable=0;points=[[0,0.5],[1,0.5]];portConstraint=eastwest;" vertex="1" parent="lFk1K94WSbGUSgZNSK4V-32">
          <mxGeometry y="88" width="160" height="112" as="geometry" />
        </mxCell>
        <mxCell id="lFk1K94WSbGUSgZNSK4V-36" value="" style="endArrow=block;endSize=16;endFill=0;html=1;exitX=0.5;exitY=0;exitDx=0;exitDy=0;entryX=0.501;entryY=1.075;entryDx=0;entryDy=0;entryPerimeter=0;" edge="1" parent="lFk1K94WSbGUSgZNSK4V-1" source="lFk1K94WSbGUSgZNSK4V-32" target="lFk1K94WSbGUSgZNSK4V-31">
          <mxGeometry width="160" relative="1" as="geometry">
            <mxPoint x="820" y="230" as="sourcePoint" />
            <mxPoint x="980" y="230" as="targetPoint" />
          </mxGeometry>
        </mxCell>
        <mxCell id="lFk1K94WSbGUSgZNSK4V-37" value="TimeSereisNeuralNet" style="swimlane;fontStyle=1;align=center;verticalAlign=top;childLayout=stackLayout;horizontal=1;startSize=26;horizontalStack=0;resizeParent=1;resizeParentMax=0;resizeLast=0;collapsible=1;marginBottom=0;" vertex="1" parent="lFk1K94WSbGUSgZNSK4V-1">
          <mxGeometry x="600" y="514" width="160" height="86" as="geometry" />
        </mxCell>
        <mxCell id="lFk1K94WSbGUSgZNSK4V-38" value="timeSeries" style="text;strokeColor=none;fillColor=none;align=left;verticalAlign=top;spacingLeft=4;spacingRight=4;overflow=hidden;rotatable=0;points=[[0,0.5],[1,0.5]];portConstraint=eastwest;" vertex="1" parent="lFk1K94WSbGUSgZNSK4V-37">
          <mxGeometry y="26" width="160" height="26" as="geometry" />
        </mxCell>
        <mxCell id="lFk1K94WSbGUSgZNSK4V-39" value="" style="line;strokeWidth=1;fillColor=none;align=left;verticalAlign=middle;spacingTop=-1;spacingLeft=3;spacingRight=3;rotatable=0;labelPosition=right;points=[];portConstraint=eastwest;" vertex="1" parent="lFk1K94WSbGUSgZNSK4V-37">
          <mxGeometry y="52" width="160" height="8" as="geometry" />
        </mxCell>
        <mxCell id="lFk1K94WSbGUSgZNSK4V-40" value="makeTimeSeriesDataset()" style="text;strokeColor=none;fillColor=none;align=left;verticalAlign=top;spacingLeft=4;spacingRight=4;overflow=hidden;rotatable=0;points=[[0,0.5],[1,0.5]];portConstraint=eastwest;" vertex="1" parent="lFk1K94WSbGUSgZNSK4V-37">
          <mxGeometry y="60" width="160" height="26" as="geometry" />
        </mxCell>
        <mxCell id="lFk1K94WSbGUSgZNSK4V-41" value="" style="endArrow=block;endSize=16;endFill=0;html=1;exitX=0.5;exitY=0;exitDx=0;exitDy=0;entryX=0.506;entryY=1.027;entryDx=0;entryDy=0;entryPerimeter=0;" edge="1" parent="lFk1K94WSbGUSgZNSK4V-1" source="lFk1K94WSbGUSgZNSK4V-37" target="lFk1K94WSbGUSgZNSK4V-35">
          <mxGeometry width="160" relative="1" as="geometry">
            <mxPoint x="820" y="590" as="sourcePoint" />
            <mxPoint x="980" y="590" as="targetPoint" />
          </mxGeometry>
        </mxCell>
        <mxCell id="lFk1K94WSbGUSgZNSK4V-42" value="Settings" style="swimlane;fontStyle=1;align=center;verticalAlign=top;childLayout=stackLayout;horizontal=1;startSize=26;horizontalStack=0;resizeParent=1;resizeParentMax=0;resizeLast=0;collapsible=1;marginBottom=0;" vertex="1" parent="lFk1K94WSbGUSgZNSK4V-1">
          <mxGeometry x="360" y="80" width="160" height="98" as="geometry" />
        </mxCell>
        <mxCell id="lFk1K94WSbGUSgZNSK4V-43" value="name&#xa;preset&#xa;sensor&#xa;target" style="text;strokeColor=none;fillColor=none;align=left;verticalAlign=top;spacingLeft=4;spacingRight=4;overflow=hidden;rotatable=0;points=[[0,0.5],[1,0.5]];portConstraint=eastwest;" vertex="1" parent="lFk1K94WSbGUSgZNSK4V-42">
          <mxGeometry y="26" width="160" height="64" as="geometry" />
        </mxCell>
        <mxCell id="lFk1K94WSbGUSgZNSK4V-44" value="" style="line;strokeWidth=1;fillColor=none;align=left;verticalAlign=middle;spacingTop=-1;spacingLeft=3;spacingRight=3;rotatable=0;labelPosition=right;points=[];portConstraint=eastwest;" vertex="1" parent="lFk1K94WSbGUSgZNSK4V-42">
          <mxGeometry y="90" width="160" height="8" as="geometry" />
        </mxCell>
        <mxCell id="lFk1K94WSbGUSgZNSK4V-46" style="edgeStyle=none;rounded=0;orthogonalLoop=1;jettySize=auto;html=1;entryX=0.007;entryY=0.055;entryDx=0;entryDy=0;entryPerimeter=0;endArrow=none;endFill=0;" edge="1" parent="lFk1K94WSbGUSgZNSK4V-1" source="lFk1K94WSbGUSgZNSK4V-43" target="lFk1K94WSbGUSgZNSK4V-31">
          <mxGeometry relative="1" as="geometry" />
        </mxCell>
        <mxCell id="lFk1K94WSbGUSgZNSK4V-47" value="1" style="text;html=1;align=center;verticalAlign=middle;resizable=0;points=[];autosize=1;" vertex="1" parent="lFk1K94WSbGUSgZNSK4V-1">
          <mxGeometry x="520" y="120" width="20" height="20" as="geometry" />
        </mxCell>
        <mxCell id="lFk1K94WSbGUSgZNSK4V-48" value="*" style="text;html=1;align=center;verticalAlign=middle;resizable=0;points=[];autosize=1;" vertex="1" parent="lFk1K94WSbGUSgZNSK4V-1">
          <mxGeometry x="580" y="120" width="20" height="20" as="geometry" />
        </mxCell>
        <mxCell id="lFk1K94WSbGUSgZNSK4V-49" style="edgeStyle=orthogonalEdgeStyle;rounded=0;orthogonalLoop=1;jettySize=auto;html=1;entryX=-0.001;entryY=1.033;entryDx=0;entryDy=0;entryPerimeter=0;endArrow=none;endFill=0;" edge="1" parent="lFk1K94WSbGUSgZNSK4V-1" source="lFk1K94WSbGUSgZNSK4V-7" target="lFk1K94WSbGUSgZNSK4V-31">
          <mxGeometry relative="1" as="geometry">
            <Array as="points">
              <mxPoint x="290" y="538" />
              <mxPoint x="290" y="210" />
              <mxPoint x="600" y="210" />
            </Array>
          </mxGeometry>
        </mxCell>
        <mxCell id="lFk1K94WSbGUSgZNSK4V-50" value="1" style="text;html=1;align=center;verticalAlign=middle;resizable=0;points=[];autosize=1;" vertex="1" parent="lFk1K94WSbGUSgZNSK4V-1">
          <mxGeometry x="260" y="520" width="20" height="20" as="geometry" />
        </mxCell>
        <mxCell id="lFk1K94WSbGUSgZNSK4V-51" value="*" style="text;html=1;align=center;verticalAlign=middle;resizable=0;points=[];autosize=1;" vertex="1" parent="lFk1K94WSbGUSgZNSK4V-1">
          <mxGeometry x="580" y="180" width="20" height="20" as="geometry" />
        </mxCell>
        <mxCell id="lFk1K94WSbGUSgZNSK4V-52" value="settingsNn" style="swimlane;fontStyle=1;align=center;verticalAlign=top;childLayout=stackLayout;horizontal=1;startSize=26;horizontalStack=0;resizeParent=1;resizeParentMax=0;resizeLast=0;collapsible=1;marginBottom=0;" vertex="1" parent="lFk1K94WSbGUSgZNSK4V-1">
          <mxGeometry x="840" y="160" width="160" height="194" as="geometry" />
        </mxCell>
        <mxCell id="lFk1K94WSbGUSgZNSK4V-53" value="inputTimeSteps&#xa;targetTimeSteps&#xa;shift&#xa;nLayers&#xa;layerWidths&#xa;activationFunction&#xa;features&#xa;targets&#xa;verbose" style="text;strokeColor=none;fillColor=none;align=left;verticalAlign=top;spacingLeft=4;spacingRight=4;overflow=hidden;rotatable=0;points=[[0,0.5],[1,0.5]];portConstraint=eastwest;" vertex="1" parent="lFk1K94WSbGUSgZNSK4V-52">
          <mxGeometry y="26" width="160" height="134" as="geometry" />
        </mxCell>
        <mxCell id="lFk1K94WSbGUSgZNSK4V-54" value="" style="line;strokeWidth=1;fillColor=none;align=left;verticalAlign=middle;spacingTop=-1;spacingLeft=3;spacingRight=3;rotatable=0;labelPosition=right;points=[];portConstraint=eastwest;" vertex="1" parent="lFk1K94WSbGUSgZNSK4V-52">
          <mxGeometry y="160" width="160" height="8" as="geometry" />
        </mxCell>
        <mxCell id="lFk1K94WSbGUSgZNSK4V-55" value="setUpModel()" style="text;strokeColor=none;fillColor=none;align=left;verticalAlign=top;spacingLeft=4;spacingRight=4;overflow=hidden;rotatable=0;points=[[0,0.5],[1,0.5]];portConstraint=eastwest;" vertex="1" parent="lFk1K94WSbGUSgZNSK4V-52">
          <mxGeometry y="168" width="160" height="26" as="geometry" />
        </mxCell>
        <mxCell id="lFk1K94WSbGUSgZNSK4V-56" style="edgeStyle=orthogonalEdgeStyle;rounded=0;orthogonalLoop=1;jettySize=auto;html=1;entryX=1;entryY=0.259;entryDx=0;entryDy=0;entryPerimeter=0;endArrow=none;endFill=0;" edge="1" parent="lFk1K94WSbGUSgZNSK4V-1" source="lFk1K94WSbGUSgZNSK4V-53" target="lFk1K94WSbGUSgZNSK4V-33">
          <mxGeometry relative="1" as="geometry">
            <Array as="points">
              <mxPoint x="830" y="290" />
              <mxPoint x="830" y="290" />
            </Array>
          </mxGeometry>
        </mxCell>
        <mxCell id="lFk1K94WSbGUSgZNSK4V-57" value="1" style="text;html=1;align=center;verticalAlign=middle;resizable=0;points=[];autosize=1;" vertex="1" parent="lFk1K94WSbGUSgZNSK4V-1">
          <mxGeometry x="820" y="270" width="20" height="20" as="geometry" />
        </mxCell>
        <mxCell id="lFk1K94WSbGUSgZNSK4V-58" value="*" style="text;html=1;align=center;verticalAlign=middle;resizable=0;points=[];autosize=1;" vertex="1" parent="lFk1K94WSbGUSgZNSK4V-1">
          <mxGeometry x="760" y="270" width="20" height="20" as="geometry" />
        </mxCell>
      </root>
    </mxGraphModel>
  </diagram>
</mxfile>
